<?xml version="1.0" encoding="UTF-8"?>
<svg version="1.1" xmlns="http://www.w3.org/2000/svg" width="436" height="405">
<path d="M0 0 C143.88 0 287.76 0 436 0 C436 133.65 436 267.3 436 405 C292.12 405 148.24 405 0 405 C0 271.35 0 137.7 0 0 Z " fill="#0E0037" transform="translate(0,0)"/>
<path d="M0 0 C3.24501239 1.18168912 6.10528567 2.85412765 9.0625 4.625 C9.91537598 5.11427979 10.76825195 5.60355957 11.64697266 6.10766602 C14.44337574 7.71860996 17.22210527 9.35737337 20 11 C21.95378947 12.14301768 23.90822664 13.28492886 25.86328125 14.42578125 C28.88879456 16.19212568 31.91330718 17.96000918 34.93383789 19.73486328 C41.55751406 23.61696039 48.24199034 27.35741512 55 31 C63.70968865 35.69645445 72.26880619 40.61389695 80.79736328 45.63085938 C89.28203196 50.61131999 97.84851475 55.43533265 106.45239258 60.20654297 C111.16121178 62.82337744 115.85660194 65.46154644 120.5078125 68.1796875 C121.29043457 68.63585449 122.07305664 69.09202148 122.87939453 69.56201172 C127.42829015 72.64663009 130.88996336 76.93287241 133 82 C133.25447559 84.75556755 133.25447559 84.75556755 133.26069641 87.98336792 C133.26778122 89.20866211 133.27486603 90.4339563 133.28216553 91.69638062 C133.27987177 93.05133094 133.27736208 94.4062809 133.2746582 95.76123047 C133.27900621 97.19049343 133.28418965 98.61975406 133.29014587 100.04901123 C133.30353876 103.92924503 133.30411415 107.80938144 133.30158257 111.68963385 C133.3005129 114.93014501 133.30539623 118.17063647 133.310188 121.41114342 C133.32128453 129.05747649 133.32172 136.70376043 133.31567383 144.35009766 C133.30963519 152.23448817 133.32194187 160.11870017 133.3432439 168.00306022 C133.3608671 174.77516468 133.36686006 181.54721237 133.36360615 188.31933892 C133.36179404 192.36270063 133.36442212 196.40593505 133.37832069 200.44927597 C133.39090589 204.25291691 133.38894855 208.05627997 133.37590981 211.85991669 C133.37354583 213.25387542 133.37627233 214.64785375 133.38453293 216.04179001 C133.39501638 217.94872255 133.38508819 219.8557344 133.3742218 221.76266479 C133.37447341 223.36155705 133.37447341 223.36155705 133.37473011 224.99275017 C132.78898616 229.69340902 131.00729737 232.96623177 127.72387695 236.3359375 C122.51853557 239.51596859 116.87163352 238.81344064 111 238 C106.75508001 236.50764 103.12055235 234.37699076 99.3125 232 C98.25216553 231.37279053 97.19183105 230.74558105 96.09936523 230.09936523 C93.85589255 228.76806833 91.62036771 227.42329584 89.39257812 226.06591797 C86.04372666 224.02662745 82.67518302 222.02520621 79.296875 220.03515625 C74.78572627 217.37654924 70.28246879 214.70538052 65.78515625 212.0234375 C55.92253346 206.1567182 45.96659394 200.45210882 36.01660156 194.73535156 C31.29728094 192.02048178 26.5858299 189.2920684 21.875 186.5625 C21.06869141 186.09545654 20.26238281 185.62841309 19.43164062 185.1472168 C17.62098303 184.09833564 15.8104721 183.0492013 14 182 C10.20594671 194.69278741 9.43361632 206.66977816 9.48357964 219.87439537 C9.49638266 223.27597733 9.48476734 226.67676845 9.46754456 230.07832336 C9.44106121 236.06160308 9.43524151 242.04468315 9.43664551 248.02801514 C9.43889008 257.64071095 9.42474379 267.253163 9.38105965 276.86576271 C9.37124382 280.21058278 9.37991968 283.55501419 9.38975525 286.89982605 C9.38361286 288.94713597 9.37670174 290.99444379 9.36889648 293.04174805 C9.37661575 293.96594543 9.38433502 294.89014282 9.39228821 295.84234619 C9.35184896 300.98141527 8.88160665 304.56055472 6 309 C2.70397835 311.97445856 0.39101049 313.82657067 -4.0390625 314.37890625 C-9.38952492 313.867077 -12.83844216 311.69473631 -17.375 308.9375 C-18.74205078 308.13155396 -18.74205078 308.13155396 -20.13671875 307.30932617 C-23.10106583 305.55563809 -26.05117435 303.77964551 -29 302 C-30.9710123 300.8197414 -32.94236809 299.64005623 -34.9140625 298.4609375 C-37.99325616 296.61666256 -41.07081841 294.76982314 -44.14501953 292.91723633 C-52.14699843 288.09574927 -60.18691456 283.34322517 -68.25 278.625 C-68.8531604 278.27194794 -69.4563208 277.91889587 -70.07775879 277.55514526 C-74.38408511 275.03490212 -78.69186269 272.51714581 -83 270 C-85.46886956 268.55749615 -87.93763583 267.11481588 -90.40625 265.671875 C-91.32003166 265.13781036 -91.32003166 265.13781036 -92.25227356 264.59295654 C-97.06969214 261.77602359 -101.87957339 258.94639849 -106.68766785 256.11358643 C-110.26148625 254.01133668 -113.84834542 251.93361702 -117.44625854 249.87289429 C-119.20833099 248.86095019 -120.96577721 247.8414547 -122.72167969 246.81884766 C-124.88503343 245.56010588 -127.05587277 244.3141067 -129.23535156 243.08349609 C-135.01095835 239.69430446 -138.32460222 237.19964698 -141 231 C-141.33 230.34 -141.66 229.68 -142 229 C-142.10438716 227.09236485 -142.14389876 225.18106227 -142.15390015 223.27059937 C-142.16250061 222.05094482 -142.17110107 220.83129028 -142.17996216 219.57467651 C-142.18439758 218.21563763 -142.18869592 216.8565983 -142.19287109 215.49755859 C-142.20077149 214.07183634 -142.2090404 212.64611609 -142.21765137 211.22039795 C-142.24388662 206.52976393 -142.25918406 201.83912094 -142.2734375 197.1484375 C-142.27879724 195.53335184 -142.28417475 193.91826624 -142.28956985 192.30318069 C-142.31120397 185.58283703 -142.329939 178.86249577 -142.34119225 172.14212608 C-142.35741889 162.51501001 -142.39055897 152.88829838 -142.44759309 143.26133478 C-142.48633312 136.49094941 -142.50582993 129.72067202 -142.51111281 122.95017874 C-142.51476177 118.90770692 -142.52673324 114.86566631 -142.55921555 110.82331467 C-142.58936684 107.01630612 -142.59558338 103.20998803 -142.58383179 99.40288544 C-142.58361161 98.00974321 -142.59187032 96.61656832 -142.60948563 95.22353745 C-142.70491715 87.23842452 -142.48249241 81.1490847 -137 75 C-133.47967301 71.78141533 -129.7116292 71.18693366 -125.0546875 71.33203125 C-118.05186219 72.8633396 -112.02432859 77.26580221 -106 81 C-103.77198077 82.33524984 -101.54281364 83.66858613 -99.3125 85 C-98.72903809 85.35280029 -98.14557617 85.70560059 -97.54443359 86.0690918 C-89.45967094 90.95743385 -81.29214396 95.70675051 -73.13427734 100.47167969 C-67.28910868 103.88766416 -61.45393333 107.31618715 -55.65625 110.8125 C-39.8693577 120.55461799 -39.8693577 120.55461799 -22.31713867 126.05200195 C-20.82533333 126.31917778 -20.82533333 126.31917778 -19.3033905 126.5917511 C-18.54327164 126.72647324 -17.78315277 126.86119537 -17 127 C-17.00553076 126.39315841 -17.01106152 125.78631681 -17.01675987 125.16108608 C-17.14940034 110.37940943 -17.24861929 95.59779038 -17.31087303 80.81566525 C-17.34178072 73.66701288 -17.38390095 66.51875832 -17.45263672 59.37036133 C-17.51253479 53.13808516 -17.55117162 46.90609715 -17.56453097 40.67354113 C-17.5723377 37.37475879 -17.59378713 34.07699051 -17.63438034 30.77842522 C-17.67795006 27.09128873 -17.68393337 23.40585844 -17.68115234 19.71850586 C-17.702724 18.63093491 -17.72429565 17.54336395 -17.746521 16.4228363 C-17.69573271 10.1980161 -16.92808452 6.70174633 -12.48386574 2.21692753 C-8.73364196 -0.85865433 -4.63311527 -0.58991673 0 0 Z " fill="#EBEBEB" transform="translate(228,46)"/>
<path d="M0 0 C0.65077296 2.04009755 1.29539824 4.08215669 1.9375 6.125 C2.47697266 7.83042969 2.47697266 7.83042969 3.02734375 9.5703125 C4.66173623 15.33335105 5.14425356 20.78011201 5.11352539 26.74951172 C5.11367142 27.50141281 5.11381744 28.2533139 5.1139679 29.02799988 C5.11327528 31.49525918 5.10551358 33.9624415 5.09765625 36.4296875 C5.09578975 38.14747069 5.09436694 39.86525442 5.09336853 41.58303833 C5.08956159 46.09079473 5.07974696 50.5985186 5.06866455 55.10626221 C5.05841115 59.711462 5.05386251 64.31666707 5.04882812 68.921875 C5.03812298 77.94793091 5.02106856 86.97396274 5 96 C0.91941376 94.42385041 -2.72012153 92.47543012 -6.4375 90.1875 C-7.78729786 89.36772748 -9.13758796 88.54876508 -10.48828125 87.73046875 C-11.21611816 87.28880371 -11.94395508 86.84713867 -12.69384766 86.39208984 C-16.82128929 83.90059374 -20.97338198 81.45092791 -25.125 79 C-26.03362793 78.46310547 -26.94225586 77.92621094 -27.87841797 77.37304688 C-33.37942704 74.12605969 -38.88818499 70.89255136 -44.40234375 67.66796875 C-45.03700562 67.29664825 -45.67166748 66.92532776 -46.32556152 66.54275513 C-49.43679156 64.72254653 -52.54884253 62.90377634 -55.66259766 61.08789062 C-61.56959603 57.63838785 -67.45794185 54.15755923 -73.30859375 50.61328125 C-74.91238892 49.64515503 -74.91238892 49.64515503 -76.54858398 48.6574707 C-79 47 -79 47 -80 45 C-79.32759277 44.61368408 -78.65518555 44.22736816 -77.96240234 43.8293457 C-74.76581772 41.99175721 -71.57011239 40.15264674 -68.375 38.3125 C-67.78655304 37.97364777 -67.19810608 37.63479553 -66.59182739 37.28567505 C-58.67407175 32.72391732 -50.78904937 28.11258512 -42.9375 23.4375 C-31.91692611 16.88188596 -20.72999232 10.63228431 -9.51342773 4.41943359 C-7.7531149 3.42531423 -6.01699012 2.38769733 -4.30102539 1.31884766 C-2 0 -2 0 0 0 Z " fill="#100239" transform="translate(206,228)"/>
<path d="M0 0 C0 32.67 0 65.34 0 99 C-3.66806415 97.53277434 -6.78551949 96.09099462 -10.18359375 94.1640625 C-11.18205322 93.60074219 -12.1805127 93.03742188 -13.20922852 92.45703125 C-14.27455811 91.85246094 -15.3398877 91.24789062 -16.4375 90.625 C-24.60948256 86.01313007 -32.80462529 81.45616189 -41.0625 77 C-50.23055876 72.05214539 -59.2221976 66.82971845 -68.14672852 61.45507812 C-69.09990967 60.88853516 -70.05309082 60.32199219 -71.03515625 59.73828125 C-71.8744165 59.23337158 -72.71367676 58.72846191 -73.57836914 58.20825195 C-76.07261791 56.96376791 -78.25423151 56.4123704 -81 56 C-79.38934509 52.05764118 -76.69713873 49.29435634 -73.75 46.3125 C-73.30398438 45.83361328 -72.85796875 45.35472656 -72.3984375 44.86132812 C-63.6588327 35.99455977 -51.55550259 30.0430228 -40.85998535 23.85299683 C-37.73177746 22.04219465 -34.60953532 20.2211938 -31.48828125 18.3984375 C-30.54866043 17.84974251 -30.54866043 17.84974251 -29.59005737 17.28996277 C-22.26276451 12.99956113 -15.02078625 8.57064019 -7.79321289 4.11450195 C-6.90754639 3.57011475 -6.02187988 3.02572754 -5.109375 2.46484375 C-3.94873535 1.74735962 -3.94873535 1.74735962 -2.76464844 1.01538086 C-1 0 -1 0 0 0 Z " fill="#0F0138" transform="translate(335,152)"/>
<path d="M0 0 C12.64150016 6.32075008 24.83155625 13.58604028 37.01123047 20.74389648 C41.78455329 23.54861462 46.56448269 26.33126487 51.40234375 29.0234375 C63.18304249 35.60543521 72.43524074 42.40674512 81 53 C78.62934651 54.42239209 76.25864311 55.84470005 73.88769531 57.26660156 C72.04757238 58.37117316 70.20828807 59.47714388 68.37011719 60.58496094 C58.82573854 66.33168911 49.32893559 72.00316983 39.27905273 76.82275391 C30.71150298 81.00485777 22.57448057 85.98300388 14.37109375 90.828125 C13.44409668 91.37533203 12.51709961 91.92253906 11.56201172 92.48632812 C9.97341537 93.42489277 8.38622146 94.36584091 6.80126953 95.31054688 C2.22470892 98 2.22470892 98 0 98 C0 65.66 0 33.32 0 0 Z " fill="#110339" transform="translate(112,153)"/>
<path d="M0 0 C4.31560277 1.30825594 8.00462828 2.9781553 11.90234375 5.23828125 C13.02769531 5.88667969 14.15304688 6.53507812 15.3125 7.203125 C16.52084322 7.90623301 17.7291763 8.60935844 18.9375 9.3125 C20.19885322 10.04099785 21.46057713 10.76885421 22.72265625 11.49609375 C24.64365631 12.60308116 26.56444592 13.71041307 28.48410034 14.81973267 C34.13470653 18.0845859 39.81297952 21.2990199 45.5 24.5 C58.69949464 31.94246972 71.8492861 39.47178771 85 47 C81.53372096 49.89081481 78.02026035 52.28456467 74.1171875 54.546875 C73.55363052 54.87534424 72.99007355 55.20381348 72.40943909 55.54223633 C70.56680768 56.61529491 68.72101315 57.68277133 66.875 58.75 C64.25810481 60.26909904 61.6426225 61.79062016 59.02734375 63.3125 C58.02910332 63.89266876 58.02910332 63.89266876 57.01069641 64.48455811 C52.48568718 67.11932772 47.98780094 69.79594338 43.50390625 72.5 C42.30294694 73.22176257 41.10193861 73.94344357 39.90087891 74.66503906 C37.65727086 76.01334356 35.41994072 77.37052631 33.18505859 78.73339844 C8.69294407 93.42943217 8.69294407 93.42943217 -1.3125 91.5703125 C-2.1478125 91.28800781 -2.1478125 91.28800781 -3 91 C-2.34 91 -1.68 91 -1 91 C-1.00523682 90.05535889 -1.01047363 89.11071777 -1.01586914 88.13745117 C-1.16268629 58.74688465 -0.66914961 29.38233803 0 0 Z " fill="#0F0138" transform="translate(237,82)"/>
</svg>
